<mxfile host="app.diagrams.net" modified="2023-12-09T15:18:18.050Z" agent="Mozilla/5.0 (Windows NT 10.0; Win64; x64) AppleWebKit/537.36 (KHTML, like Gecko) Chrome/119.0.0.0 Safari/537.36" version="22.1.7" etag="caxnCiQEIv0ISIYepfnu" type="github">
  <diagram name="PÃ¡gina-1" id="MKbLKHJ7BsV9ELFON74y">
    <mxGraphModel>
      <root>
        <mxCell id="0" />
        <mxCell id="1" parent="0" />
      </root>
    </mxGraphModel>
  </diagram>
</mxfile>
